# xmcd
#
# Track frame offsets:
#	150
#	19003
#	33546
#	50492
#	68121
#	85080
#	101203
#	118154
#	132087
#	141527
#	160430
#
# Disc length: 2287 seconds
#
# Revision: 1
# Processed by: cddbd v1.5.2PL0 Copyright (c) Steve Scherf et al.
# Submitted via: audiograbber 1.83.01
#
DISCID=9e08ed0b
DTITLE=Matt Keating - Between Customers
DYEAR=2010
DGENRE=Country
TTITLE0=Between Customers
TTITLE1=Daddy's On The Roof
TTITLE2=Better Than That
TTITLE3=Louisiana
TTITLE4=Go Down
TTITLE5=Tree Lined Streets
TTITLE6=The Writer Next Door
TTITLE7=Shipfull Of Holes
TTITLE8=Remember When
TTITLE9=The Place
TTITLE10=St. Cloud (acoustic) Bonus Track
EXTD=
EXTT0=
EXTT1=
EXTT2=
EXTT3=
EXTT4=
EXTT5=
EXTT6=
EXTT7=
EXTT8=
EXTT9=
EXTT10=
PLAYORDER=
